<svg width="337" height="392" viewBox="0 0 337 392" fill="none" xmlns="http://www.w3.org/2000/svg">
<path d="M337 287.606C327.808 308.012 323.379 317.133 311.556 335.141C295.004 360.307 271.658 391.731 242.817 391.93C217.139 392.163 210.512 375.187 175.643 375.486C140.807 375.653 133.546 392.263 107.836 391.997C78.9613 391.731 56.8808 363.436 40.3288 338.304C-5.96365 267.833 -10.8593 185.213 17.7487 141.273C37.9975 110.116 70.0026 91.8077 100.076 91.8077C130.716 91.8077 149.965 108.618 175.276 108.618C199.855 108.618 214.808 91.7744 250.243 91.7744C277.02 91.7744 305.328 106.354 325.577 131.52C259.369 167.804 270.126 262.308 337 287.606ZM223.334 63.6462C236.222 47.1022 246.014 23.7675 242.45 0C221.435 1.43138 196.857 14.8464 182.503 32.2226C169.481 48.0675 158.691 71.5687 162.887 94.3043C185.834 95.0366 209.579 81.3553 223.334 63.6462Z" fill="#FEFEFE"/>
</svg>
